<svg xmlns="http://www.w3.org/2000/svg" viewBox="0 0 57 42"><defs><style>.cls-1{isolation:isolate;}.cls-2{fill:#fff;fill-rule:evenodd;}</style></defs><title>icon-wind</title><g id="Layer_2" data-name="Layer 2"><g id="_26" data-name="26" class="cls-1"><path class="cls-2" d="M45,26.7a1.5,1.5,0,0,0-3,0V27a7.5,7.5,0,1,0,7.5-7.5H1.5a1.5,1.5,0,0,0,0,3h48A4.5,4.5,0,1,1,45,27Z"/><path class="cls-2" d="M30,34.2a1.5,1.5,0,0,0-3,0v.3A7.5,7.5,0,1,0,34.5,27H9a1.5,1.5,0,0,0,0,3H34.5A4.5,4.5,0,1,1,30,34.5Z"/><path class="cls-2" d="M40.5,7.8a1.5,1.5,0,1,1-3,0V7.5A7.5,7.5,0,1,1,45,15H9a1.5,1.5,0,0,1,0-3H45a4.5,4.5,0,1,0-4.5-4.5Z"/></g></g></svg>