<svg xmlns="http://www.w3.org/2000/svg" viewBox="0 0 74.5 74.5"><defs><style>.cls-1{isolation:isolate;}.cls-2{fill:#fff;fill-rule:evenodd;}</style></defs><title>icon-clear-day</title><g id="Layer_2" data-name="Layer 2"><g id="_1" data-name="1" class="cls-1"><path class="cls-2" d="M72.5,39.64H64.65a2.11,2.11,0,0,1-2.13-1.71,2,2,0,0,1,2-2.29h7.85a2.11,2.11,0,0,1,2.13,1.71A2,2,0,0,1,72.5,39.64ZM69,21.35l-7.21,4.16a2.09,2.09,0,1,1-2.09-3.61l7.22-4.16A2.08,2.08,0,1,1,69,21.35ZM37.25,58.08A20.83,20.83,0,1,1,58.08,37.25,20.82,20.82,0,0,1,37.25,58.08Zm0-36.11A15.28,15.28,0,1,0,52.53,37.25,15.28,15.28,0,0,0,37.25,22ZM52.6,14.84A2.09,2.09,0,0,1,49,12.75l4.16-7.21a2.08,2.08,0,1,1,3.61,2.08Zm-17.29-5V2.15A2.1,2.1,0,0,1,37,0a2,2,0,0,1,2.3,2v8A2,2,0,0,1,37,12,2.1,2.1,0,0,1,35.31,9.85ZM24.75,15.6a2.1,2.1,0,0,1-2.85-.76L17.74,7.62a2.08,2.08,0,1,1,3.61-2.08l4.16,7.21A2.08,2.08,0,0,1,24.75,15.6Zm-9.91,37L7.62,56.76a2.08,2.08,0,1,1-2.08-3.61L12.75,49a2.09,2.09,0,0,1,2.09,3.61ZM12.75,25.51,5.54,21.35a2.08,2.08,0,1,1,2.08-3.61l7.22,4.16a2.09,2.09,0,1,1-2.09,3.61ZM9.85,39.64H2.15A2.11,2.11,0,0,1,0,37.93a2,2,0,0,1,2-2.29h8a2,2,0,0,1,2,2.29A2.11,2.11,0,0,1,9.85,39.64Zm12,20a2.09,2.09,0,0,1,3.61,2.09L21.35,69a2.08,2.08,0,1,1-3.61-2.08Zm17.41,5v7.7a2.11,2.11,0,0,1-1.71,2.13,2,2,0,0,1-2.29-2v-8a2,2,0,0,1,2.29-2A2.11,2.11,0,0,1,39.31,64.65ZM49.75,58.9a2.1,2.1,0,0,1,2.85.76l4.16,7.22A2.08,2.08,0,1,1,53.15,69L49,61.75A2.08,2.08,0,0,1,49.75,58.9Zm12-9.91L69,53.15a2.08,2.08,0,1,1-2.08,3.61L59.66,52.6A2.09,2.09,0,0,1,61.75,49Z"/></g></g></svg>