<svg xmlns="http://www.w3.org/2000/svg" viewBox="0 0 59.32 70.18"><defs><style>.cls-1{isolation:isolate;}.cls-2{fill:#fff;fill-rule:evenodd;}</style></defs><title>icon-sleet</title><g id="Layer_2" data-name="Layer 2"><g id="_18" data-name="18" class="cls-1"><path class="cls-2" d="M55.16,16.89A21.07,21.07,0,0,0,36.32.1,21.45,21.45,0,0,0,18.6,6.79a16.89,16.89,0,0,0-18.52,15A16.73,16.73,0,0,0,15.37,39.9a17.22,17.22,0,0,0,8.15-1.21,21.58,21.58,0,0,0,21.85-.17A12.66,12.66,0,0,0,59.26,27.29,12.31,12.31,0,0,0,55.16,16.89Zm-1.39,9.89a7.25,7.25,0,0,1-10.07,5.8,15.53,15.53,0,0,1-19.63-.68,11.33,11.33,0,0,1-8.15,2.41,11,11,0,1,1,2.14-21.93,11.4,11.4,0,0,1,3.11.74A15.37,15.37,0,0,1,35.75,5.89,15.11,15.11,0,0,1,49.54,19.67,7.05,7.05,0,0,1,53.77,26.78Z"/><path class="cls-2" d="M20.76,42c.3.09-3.25,14.19-3.66,15.71s-1,2.69-1.29,2.61-.22-1.38.19-2.9S20.45,42,20.76,42Z"/><path class="cls-2" d="M25,41.51c.28.08-.88,5.28-1.26,6.69s-.91,2.48-1.19,2.4-.2-1.27.18-2.68S24.71,41.44,25,41.51Z"/><path class="cls-2" d="M42,42.07c.25.07-3,14.07-3.34,15.34s-.83,2.26-1.08,2.19-.19-1.16.15-2.43S41.69,42,42,42.07Z"/><path class="cls-2" d="M31.86,67.16A7.78,7.78,0,0,1,31.15,69v0c-.14.23-.27.35-.36.32h0s0,0,0,0a.74.74,0,0,1-.88-.57,6.44,6.44,0,0,0-3.05-3.5s2.81.54,4,2.25c0-.2.09-.41.14-.63.35-1.28,4-15.16,4.27-15.1S32.2,65.89,31.86,67.16Z"/><path class="cls-2" d="M10.86,67.91c-.56,2.1-.79,2.27-1.1,2.27s-.67-.33-.92-1C7.61,65.85,4,63.68,4,63.68S8.47,65,9.88,67.88l.06-.21c.34-1.28,4-15.16,4.26-15.1S11.2,66.64,10.86,67.91Z"/><path class="cls-2" d="M45.72,64S42,65.75,41,69.13A1.13,1.13,0,0,1,39.6,70a1.08,1.08,0,0,1-.72-1.21,9.09,9.09,0,0,1,.37-2.3C39.65,64.92,43.7,51,44,51s-2.79,12.35-3.54,15.23A12.27,12.27,0,0,1,45.72,64Z"/><path class="cls-2" d="M7.74,42.26c.28.08-.88,5.28-1.26,6.69s-.91,2.48-1.19,2.4-.2-1.27.18-2.68S7.46,42.19,7.74,42.26Z"/><path class="cls-2" d="M2.5,60.21A1.93,1.93,0,1,1,.58,62.14,1.92,1.92,0,0,1,2.5,60.21Z"/><path class="cls-2" d="M15,61.36a1.42,1.42,0,1,1-1.42,1.42A1.42,1.42,0,0,1,15,61.36Z"/><path class="cls-2" d="M22.06,52.33a1.72,1.72,0,1,1-1.72,1.72A1.72,1.72,0,0,1,22.06,52.33Z"/><path class="cls-2" d="M25.3,61.9a1.72,1.72,0,1,1-1.72,1.71A1.71,1.71,0,0,1,25.3,61.9Z"/><path class="cls-2" d="M36.92,60a1.49,1.49,0,1,1-1.49,1.49A1.49,1.49,0,0,1,36.92,60Z"/><path class="cls-2" d="M47.84,61.19a1.72,1.72,0,1,1-1.72,1.72A1.72,1.72,0,0,1,47.84,61.19Z"/><path class="cls-2" d="M4.81,52.49a1.57,1.57,0,1,1-1.56,1.56A1.56,1.56,0,0,1,4.81,52.49Z"/><path class="cls-2" d="M47.14,41.56s1.72,3,1.09,5.31a2.43,2.43,0,0,1-4.69-1.25C44.17,43.27,47.14,41.56,47.14,41.56Z"/><path class="cls-2" d="M31.79,44.76s2.21,3.83,1.4,6.85a3.13,3.13,0,1,1-6-1.62C28,47,31.79,44.76,31.79,44.76Z"/><path class="cls-2" d="M14.14,43.06s1.72,3,1.09,5.31a2.43,2.43,0,0,1-4.69-1.25C11.17,44.77,14.14,43.06,14.14,43.06Z"/></g></g></svg>