<svg xmlns="http://www.w3.org/2000/svg" viewBox="0 0 60.75 62.25"><defs><style>.cls-1{isolation:isolate;}.cls-2{fill:#fff;fill-rule:evenodd;}</style></defs><title>icon-fog</title><g id="Layer_2" data-name="Layer 2"><g id="_22" data-name="22" class="cls-1"><path class="cls-2" d="M17.25,57.75H58.5a2.25,2.25,0,0,1,0,4.5H17.25a2.25,2.25,0,0,1,0-4.5Z"/><path class="cls-2" d="M2.25,49.5h48a2.25,2.25,0,0,1,0,4.5h-48a2.25,2.25,0,0,1,0-4.5Z"/><path class="cls-2" d="M10.5,41.25h48a2.25,2.25,0,0,1,0,4.5h-48a2.25,2.25,0,0,1,0-4.5Z"/><path class="cls-2" d="M4.5,33H50.25a2.25,2.25,0,0,1,0,4.5H4.5a2.25,2.25,0,0,1,0-4.5Z"/><path class="cls-2" d="M12,24.75H58.5a2.25,2.25,0,0,1,0,4.5H12a2.25,2.25,0,0,1,0-4.5Z"/><path class="cls-2" d="M2.25,16.5H52.5a2.25,2.25,0,0,1,0,4.5H2.25a2.25,2.25,0,0,1,0-4.5Z"/><path class="cls-2" d="M10.5,8.25H36.75a2.25,2.25,0,0,1,0,4.5H10.5a2.25,2.25,0,0,1,0-4.5Z"/><path class="cls-2" d="M14.25,0H28.5a2.25,2.25,0,0,1,0,4.5H14.25a2.25,2.25,0,0,1,0-4.5Z"/></g></g></svg>