<svg xmlns="http://www.w3.org/2000/svg" viewBox="0 0 53.84 58.1"><defs><style>.cls-1{isolation:isolate;}.cls-2{fill:#fff;fill-rule:evenodd;}</style></defs><title>icon-snow</title><g id="Layer_2" data-name="Layer 2"><g id="_37" data-name="37" class="cls-1"><path class="cls-2" d="M18.13,48.42,24,43.58v-5l-3.84-2.22-4.34,2.5-1.26,7.5L8.8,49.67l.9-7.29L3.23,46.12l.41-3.67L.3,41l6.35-3.67-6.59-3,5.69-3.28,7.13,2.66,4.35-2.52V26.84l-4.35-2.51L5.75,27,0,23.67,6.77,20.8.3,17.07l3.5-1.42L3.23,12l6.35,3.66L8.86,8.46l5.69,3.29,1.26,7.5,4.35,2.51L24,19.55v-5L18.13,9.68V3L24,7.47V0l2.85,2.19,3-2.19V7.33l5.87-4.22V9.68l-5.87,4.85v5l3.86,2.23L38,19.25l1.26-7.5,5.75-3.32-.9,7.29L50.62,12l-.49,3.7,3.42,1.38L47.2,20.73l6.58,3L48.09,27,41,24.33l-4.31,2.48v4.48L41,33.78l7.12-2.66,5.75,3.32L47.08,37.3,53.55,41l-3.71,1.17.78,3.91-6.35-3.67L45,49.64,39.3,46.35,38,38.85l-4.32-2.49L29.85,38.6v5l5.87,4.84v6.64l-5.87-4.43V58.1l-2.92-2.27L24,58.1V50.77L18.13,55ZM23.06,31.3,27,33.54l3.88-2.24V26.82L27,24.57l-3.89,2.25Z"/></g></g></svg>