<svg xmlns="http://www.w3.org/2000/svg" viewBox="0 0 75 51.75"><defs><style>.cls-1{isolation:isolate;}.cls-2{fill:#fff;fill-rule:evenodd;}</style></defs><title>icon-sunrise</title><g id="Layer_2" data-name="Layer 2"><g id="_44" data-name="44" class="cls-1"><path class="cls-2" d="M65.2,51.75H9.74a2.25,2.25,0,1,1,0-4.49H65.2a2.25,2.25,0,1,1,0,4.49Z"/><path class="cls-2" d="M31.7,35.31a1.49,1.49,0,0,1-1-.43,1.45,1.45,0,0,1,0-2l5.79-5.79a1.45,1.45,0,0,1,2,0l5.8,5.79a1.45,1.45,0,0,1,0,2,1.47,1.47,0,0,1-1,.43c-.37,0-4.33,0-4.33,0v7.23a1.45,1.45,0,1,1-2.89,0V35.31Z"/><path class="cls-2" d="M72.92,39.58H64.58a2.08,2.08,0,0,1,0-4.16h8.34a2.08,2.08,0,1,1,0,4.16Zm-3.71-18L62,25.76a2.09,2.09,0,1,1-2.09-3.61L67.13,18a2.08,2.08,0,1,1,2.08,3.6ZM17.77,44.27a21.11,21.11,0,0,1-1.1-6.77,20.83,20.83,0,0,1,41.66,0,21.1,21.1,0,0,1-1.1,6.73c-2.29,0-3.46,0-6,0a15.09,15.09,0,0,0,1.57-6.74,15.28,15.28,0,0,0-30.56,0,15.62,15.62,0,0,0,1.53,6.76C20.74,44.25,19.71,44.27,17.77,44.27ZM52.85,15.09A2.09,2.09,0,0,1,49.24,13L53.4,5.79A2.08,2.08,0,1,1,57,7.87ZM37.5,12.5a2.08,2.08,0,0,1-2.08-2.08V2.08a2.08,2.08,0,1,1,4.16,0v8.34A2.08,2.08,0,0,1,37.5,12.5ZM25,15.85a2.1,2.1,0,0,1-2.85-.76L18,7.87A2.08,2.08,0,1,1,21.6,5.79L25.76,13A2.08,2.08,0,0,1,25,15.85ZM13,25.76,5.79,21.59A2.08,2.08,0,1,1,7.87,18l7.22,4.16A2.09,2.09,0,1,1,13,25.76ZM12.5,37.5a2.08,2.08,0,0,1-2.08,2.08H2.08a2.08,2.08,0,1,1,0-4.16h8.34A2.08,2.08,0,0,1,12.5,37.5Z"/></g></g></svg>