<svg xmlns="http://www.w3.org/2000/svg" viewBox="0 0 74.82 63.21"><defs><style>.cls-1{isolation:isolate;}.cls-2{fill:#fff;fill-rule:evenodd;}</style></defs><title>icon-partly-cloudy-day</title><g id="Layer_2" data-name="Layer 2"><g id="_2" data-name="2" class="cls-1"><path class="cls-2" d="M70.66,38.52A21.07,21.07,0,0,0,51.82,21.73a21.45,21.45,0,0,0-17.72,6.7,16.63,16.63,0,1,0-3.22,33.1A17.19,17.19,0,0,0,39,60.33a21.66,21.66,0,0,0,21.85-.17A12.67,12.67,0,0,0,74.76,48.93,12.3,12.3,0,0,0,70.66,38.52Zm-1.39,9.89a7.18,7.18,0,0,1-7.87,6.37,7.27,7.27,0,0,1-2.2-.56,15.53,15.53,0,0,1-19.63-.68A11.41,11.41,0,0,1,31.42,56,11,11,0,1,1,33.56,34a11.39,11.39,0,0,1,3.11.73,15.4,15.4,0,0,1,14.58-7.23A15.12,15.12,0,0,1,65,41.31,7,7,0,0,1,69.27,48.41Z"/><path class="cls-2" d="M48.74,15.21l-5.08,2.93a1.47,1.47,0,1,1-1.47-2.54l5.08-2.93a1.47,1.47,0,1,1,1.47,2.54ZM37.21,10.62a1.45,1.45,0,0,1-2,.54,1.47,1.47,0,0,1-.54-2l2.94-5.09a1.47,1.47,0,0,1,2.54,1.47ZM26.41,8.8a1.47,1.47,0,0,1-1.47-1.46V1.47a1.47,1.47,0,1,1,2.93,0V7.34A1.46,1.46,0,0,1,26.41,8.8Zm-8.8,2.36a1.46,1.46,0,0,1-2-.54L12.67,5.54a1.47,1.47,0,0,1,2.54-1.47l2.93,5.09A1.46,1.46,0,0,1,17.61,11.16Zm8.8.58A14.68,14.68,0,0,1,40.47,22.22a20.73,20.73,0,0,0-5,3.05A9.1,9.1,0,1,0,19.5,32.33a17.12,17.12,0,0,0-3.58,4.32A14.66,14.66,0,0,1,26.41,11.74ZM10.62,37.21,5.54,40.15a1.47,1.47,0,0,1-2-.54,1.45,1.45,0,0,1,.54-2l5.08-2.94a1.47,1.47,0,0,1,2,.54A1.45,1.45,0,0,1,10.62,37.21ZM9.16,18.14,4.08,15.21a1.46,1.46,0,1,1,1.46-2.54l5.08,2.93a1.46,1.46,0,1,1-1.46,2.54ZM8.8,26.41a1.46,1.46,0,0,1-1.46,1.46H1.47a1.47,1.47,0,1,1,0-2.93H7.34A1.46,1.46,0,0,1,8.8,26.41Z"/></g></g></svg>