<svg xmlns="http://www.w3.org/2000/svg" viewBox="0 0 74.88 52.47"><defs><style>.cls-1{isolation:isolate;}.cls-2{fill:#fff;fill-rule:evenodd;}</style></defs><title>icon-cloudy</title><g id="Layer_2" data-name="Layer 2"><g id="_4" data-name="4" class="cls-1"><path class="cls-2" d="M69.62,21.31A26.59,26.59,0,0,0,45.84.12,27.09,27.09,0,0,0,23.48,8.57,21.32,21.32,0,0,0,.1,27.47,21.11,21.11,0,0,0,19.41,50.36a21.7,21.7,0,0,0,10.28-1.52,27.31,27.31,0,0,0,27.58-.22A16,16,0,0,0,74.8,34.45,15.56,15.56,0,0,0,69.62,21.31ZM67.87,33.8a9.17,9.17,0,0,1-12.71,7.33,19.61,19.61,0,0,1-24.78-.86,14.38,14.38,0,0,1-10.29,3A14,14,0,0,1,7.3,28.15,14.3,14.3,0,0,1,26.72,16.56,19.42,19.42,0,0,1,45.13,7.43a19.09,19.09,0,0,1,17.41,17.4A8.89,8.89,0,0,1,67.87,33.8Z"/></g></g></svg>