<svg xmlns="http://www.w3.org/2000/svg" viewBox="0 0 63.99 61.96"><defs><style>.cls-1{isolation:isolate;}.cls-2,.cls-3{fill:#fff;}.cls-2{fill-rule:evenodd;}</style></defs><title>icon-clear-night</title><g id="Layer_2" data-name="Layer 2"><g id="_5" data-name="5" class="cls-1"><path class="cls-2" d="M49,24.46A26.25,26.25,0,0,1,22.74,50.71C17,50.71,12,47.6,7.7,44.45,7.55,47,9.47,49.35,10.8,51A30,30,0,1,0,42.57,3.21a10.9,10.9,0,0,0-6.5-.07A23.83,23.83,0,0,1,49,24.46Z"/><polygon class="cls-3" points="9.82 17.16 7.59 15.24 4.88 16.38 6.02 13.67 4.1 11.45 7.03 11.69 8.55 9.17 9.22 12.03 12.08 12.7 9.57 14.23 9.82 17.16"/><polygon class="cls-3" points="34.82 15.21 31.9 14.91 30.33 17.39 29.71 14.52 26.86 13.79 29.4 12.32 29.21 9.38 31.4 11.35 34.13 10.26 32.94 12.95 34.82 15.21"/><polygon class="cls-3" points="27.57 38.71 24.39 34.86 19.4 34.95 22.07 30.74 20.45 26.02 25.28 27.26 29.27 24.26 29.58 29.24 33.67 32.1 29.03 33.94 27.57 38.71"/><polygon class="cls-3" points="4.26 38.92 2.74 38.7 1.61 39.75 1.35 38.23 0 37.48 1.37 36.77 1.66 35.25 2.77 36.33 4.3 36.14 3.61 37.52 4.26 38.92"/><polygon class="cls-3" points="61.27 3.67 59.74 3.45 58.61 4.5 58.35 2.98 57 2.23 58.37 1.52 58.66 0 59.77 1.08 61.3 0.89 60.61 2.27 61.27 3.67"/></g></g></svg>