<svg xmlns="http://www.w3.org/2000/svg" viewBox="0 0 60 60"><defs><style>.cls-1{isolation:isolate;}.cls-2,.cls-3{fill:#fff;fill-rule:evenodd;}.cls-2{opacity:0.25;}</style></defs><title>icon-moon-waning-gibbous</title><g id="Layer_2" data-name="Layer 2"><g id="_48" data-name="48" class="cls-1"><path class="cls-2" d="M0,30A30,30,0,0,1,30,0c.77,0,1.54,0,2.3.09a30,30,0,0,1,0,59.82c-.76.06-1.53.09-2.3.09A30,30,0,0,1,0,30Z"/><path class="cls-3" d="M0,30A30,30,0,0,1,30,0c.77,0,1.54,0,2.3.09C40.09,2.18,46.07,14.78,46.07,30s-6,27.82-13.77,29.91c-.76.06-1.53.09-2.3.09A30,30,0,0,1,0,30Z"/></g></g></svg>