<svg xmlns="http://www.w3.org/2000/svg" viewBox="0 0 60 60"><defs><style>.cls-1{isolation:isolate;}.cls-2,.cls-3{fill:#fff;fill-rule:evenodd;}.cls-2{opacity:0.25;}</style></defs><title>icon-moon-waxing-gibbous</title><g id="Layer_2" data-name="Layer 2"><g id="_48" data-name="48" class="cls-1"><path class="cls-2" d="M60,30A30,30,0,0,1,30,60c-.77,0-1.54,0-2.3-.09A30,30,0,0,1,27.7.09C28.46,0,29.23,0,30,0A30,30,0,0,1,60,30Z"/><path class="cls-3" d="M60,30A30,30,0,0,1,30,60c-.77,0-1.54,0-2.3-.09C19.91,57.82,13.93,45.22,13.93,30S19.91,2.18,27.7.09C28.46,0,29.23,0,30,0A30,30,0,0,1,60,30Z"/></g></g></svg>