<svg xmlns="http://www.w3.org/2000/svg" viewBox="0 0 65.64 66.62"><defs><style>.cls-1{isolation:isolate;}.cls-2{fill:#fff;fill-rule:evenodd;}</style></defs><title>icon-partly-cloudy-night</title><g id="Layer_2" data-name="Layer 2"><g id="_6" data-name="6" class="cls-1"><path class="cls-2" d="M61.48,41.94A21.06,21.06,0,0,0,42.64,25.15a21.46,21.46,0,0,0-17.72,6.69,16.9,16.9,0,0,0-18.52,15A16.73,16.73,0,0,0,21.7,65a17.24,17.24,0,0,0,8.15-1.21,21.57,21.57,0,0,0,21.84-.17A12.65,12.65,0,0,0,65.58,52.34,12.28,12.28,0,0,0,61.48,41.94Zm-1.39,9.89a7.17,7.17,0,0,1-7.87,6.36,7.26,7.26,0,0,1-2.2-.55A15.56,15.56,0,0,1,30.39,57a11.36,11.36,0,0,1-8.15,2.4,11,11,0,1,1,2.14-21.93,11.32,11.32,0,0,1,3.11.74,15.4,15.4,0,0,1,14.59-7.23A15.13,15.13,0,0,1,55.87,44.72,7,7,0,0,1,60.09,51.83Z"/><path class="cls-2" d="M25.85,13.64A16.43,16.43,0,0,1,9.42,30.07c-3.61,0-6.7-1.95-9.41-3.92-.1,1.57,1.1,3.07,1.93,4.09a18.84,18.84,0,0,0,7.69,5.59c4.06-3.91,7.63-5.69,14.41-5.89a21.46,21.46,0,0,1,10.29-5.73,17.84,17.84,0,0,0,.91-5.88A18.77,18.77,0,0,0,21.83.34,6.8,6.8,0,0,0,17.76.29,14.93,14.93,0,0,1,25.85,13.64Z"/></g></g></svg>