<svg xmlns="http://www.w3.org/2000/svg" viewBox="0 0 74.88 73.2"><defs><style>.cls-1{isolation:isolate;}.cls-2{fill:#fff;fill-rule:evenodd;}</style></defs><title>icon-thunderstorm</title><g id="Layer_2" data-name="Layer 2"><g id="_9" data-name="9" class="cls-1"><path class="cls-2" d="M20.09,43.31A14,14,0,0,1,7.3,28.15,14.3,14.3,0,0,1,26.72,16.56,19.42,19.42,0,0,1,45.13,7.43a19.09,19.09,0,0,1,17.41,17.4,8.89,8.89,0,0,1,5.33,9,9.17,9.17,0,0,1-12.71,7.33,125.52,125.52,0,0,1-9,11.19,27,27,0,0,0,11.1-3.7A16,16,0,0,0,74.8,34.45a15.56,15.56,0,0,0-5.18-13.14A26.59,26.59,0,0,0,45.84.12,27.09,27.09,0,0,0,23.48,8.57,21.32,21.32,0,0,0,.1,27.47a21,21,0,0,0,15.17,22.1C17.56,46.64,18.7,45,20.09,43.31Z"/><polygon class="cls-2" points="26.09 73.2 32.8 50.71 18.36 50.71 41.73 20.19 35.03 43.08 49.46 43.08 26.09 73.2"/></g></g></svg>