<svg xmlns="http://www.w3.org/2000/svg" viewBox="0 0 62.29 73.74"><defs><style>.cls-1{isolation:isolate;}.cls-2{fill:#fff;fill-rule:evenodd;}</style></defs><title>icon-rain</title><g id="Layer_2" data-name="Layer 2"><g id="_12" data-name="12" class="cls-1"><path class="cls-2" d="M58.13,16.89A21.05,21.05,0,0,0,39.29.1,21.43,21.43,0,0,0,21.58,6.79a16.9,16.9,0,0,0-18.53,15A16.73,16.73,0,0,0,18.35,39.9a17.24,17.24,0,0,0,8.15-1.21,21.58,21.58,0,0,0,21.85-.17A12.66,12.66,0,0,0,62.24,27.29,12.32,12.32,0,0,0,58.13,16.89Zm-1.39,9.89a7.18,7.18,0,0,1-7.87,6.36,7.27,7.27,0,0,1-2.2-.56A15.53,15.53,0,0,1,27,31.9a11.32,11.32,0,0,1-8.15,2.41,11.08,11.08,0,0,1-10.13-12A11.18,11.18,0,0,1,21,12.38a11.32,11.32,0,0,1,3.11.74A15.39,15.39,0,0,1,38.73,5.89,15.12,15.12,0,0,1,52.52,19.67,7,7,0,0,1,56.74,26.78Z"/><path class="cls-2" d="M15.89,42.2a102.93,102.93,0,0,1-3.51,18.48c-.54,2-1.53,3.48-2.21,3.29S9.35,62,9.9,60A132,132,0,0,1,15.89,42.2Z"/><path class="cls-2" d="M24,41.75s-1.28,10.44-6.17,28.68c-.54,2-1.53,3.48-2.21,3.29s-.81-2-.28-4C20.2,51.62,24,41.75,24,41.75Z"/><path class="cls-2" d="M31.94,42.5a83.29,83.29,0,0,1-2.87,14.43c-.55,2-1.53,3.48-2.21,3.29s-.87-2-.28-3.95C30,45,31.94,42.5,31.94,42.5Z"/><path class="cls-2" d="M38.24,43.7S37.56,54,32.82,70.43c-.57,2-1.53,3.48-2.21,3.29s-.81-2-.28-4C34.75,53.27,38.24,43.7,38.24,43.7Z"/><path class="cls-2" d="M46.19,42.5a163.1,163.1,0,0,1-4.37,21.93c-.56,2-1.53,3.48-2.21,3.29s-.84-2-.28-3.95C42.85,51.47,46.19,42.5,46.19,42.5Z"/><path class="cls-2" d="M55.34,40.85a165.27,165.27,0,0,1-3.77,19.08c-.56,2-1.53,3.48-2.21,3.29s-.82-1.95-.28-3.95A138,138,0,0,1,55.34,40.85Z"/><path class="cls-2" d="M8.69,39.2s-1,10-5.87,28.23c-.54,2-1.53,3.48-2.21,3.29s-.81-2-.28-4C5.2,48.62,8.69,39.2,8.69,39.2Z"/><path class="cls-2" d="M26.1,63s1.86,3.22,1.18,5.76a2.63,2.63,0,0,1-5.09-1.36C22.87,64.87,26.1,63,26.1,63Z"/><path class="cls-2" d="M48.6,65.86s1.56,2.72,1,4.86a2.22,2.22,0,0,1-4.29-1.15C45.88,67.43,48.6,65.86,48.6,65.86Z"/><path class="cls-2" d="M9.6,66.61s1.56,2.72,1,4.86A2.22,2.22,0,0,1,6.3,70.32C6.88,68.18,9.6,66.61,9.6,66.61Z"/></g></g></svg>